<svg width="30" height="31" viewBox="0 0 30 31" fill="none" xmlns="http://www.w3.org/2000/svg">
<path fill-rule="evenodd" clip-rule="evenodd" d="M9.33125 1.37694C10.7975 1.30719 11.265 1.29169 15 1.29169C18.735 1.29169 19.2025 1.30848 20.6675 1.37694C22.1325 1.4454 23.1325 1.68694 24.0075 2.03698C24.9237 2.39477 25.755 2.95406 26.4425 3.67739C27.1425 4.38652 27.6825 5.24419 28.0275 6.19227C28.3675 7.09644 28.6 8.12977 28.6675 9.64102C28.735 11.1587 28.75 11.6418 28.75 15.5C28.75 19.3595 28.7337 19.8426 28.6675 21.3577C28.6012 22.869 28.3675 23.9023 28.0275 24.8065C27.6825 25.7547 27.1416 26.6138 26.4425 27.3239C25.755 28.0473 24.9237 28.6053 24.0075 28.9618C23.1325 29.3131 22.1325 29.5534 20.67 29.6231C19.2025 29.6929 18.735 29.7084 15 29.7084C11.265 29.7084 10.7975 29.6916 9.33125 29.6231C7.86875 29.5546 6.86875 29.3131 5.99375 28.9618C5.07615 28.6052 4.24478 28.0463 3.5575 27.3239C2.85797 26.6144 2.31664 25.7557 1.97125 24.8078C1.6325 23.9036 1.4 22.8703 1.3325 21.359C1.265 19.8413 1.25 19.3582 1.25 15.5C1.25 11.6405 1.26625 11.1574 1.3325 9.6436C1.39875 8.12977 1.6325 7.09644 1.97125 6.19227C2.31715 5.24429 2.8589 4.38563 3.55875 3.6761C4.24505 2.95342 5.07559 2.39405 5.9925 2.03698C6.8675 1.68694 7.8675 1.44669 9.33 1.37694H9.33125ZM20.5562 3.93444C19.1062 3.86598 18.6712 3.85177 15 3.85177C11.3287 3.85177 10.8938 3.86598 9.44375 3.93444C8.1025 3.99773 7.375 4.22894 6.89 4.42398C6.24875 4.68231 5.79 4.98844 5.30875 5.48573C4.85256 5.94434 4.50148 6.50263 4.28125 7.11969C4.0925 7.62085 3.86875 8.3726 3.8075 9.75856C3.74125 11.2569 3.7275 11.7064 3.7275 15.5C3.7275 19.2936 3.74125 19.7431 3.8075 21.2415C3.86875 22.6274 4.0925 23.3792 4.28125 23.8804C4.50125 24.4965 4.8525 25.0558 5.30875 25.5143C5.7525 25.9858 6.29375 26.3487 6.89 26.5761C7.375 26.7711 8.1025 27.0023 9.44375 27.0656C10.8938 27.1341 11.3275 27.1483 15 27.1483C18.6725 27.1483 19.1062 27.1341 20.5562 27.0656C21.8975 27.0023 22.625 26.7711 23.11 26.5761C23.7513 26.3177 24.21 26.0116 24.6912 25.5143C25.1475 25.0558 25.4988 24.4965 25.7188 23.8804C25.9075 23.3792 26.1313 22.6274 26.1925 21.2415C26.2588 19.7431 26.2725 19.2936 26.2725 15.5C26.2725 11.7064 26.2588 11.2569 26.1925 9.75856C26.1313 8.3726 25.9075 7.62085 25.7188 7.11969C25.4688 6.45706 25.1725 5.98302 24.6912 5.48573C24.2474 5.01436 23.7071 4.65158 23.11 4.42398C22.625 4.22894 21.8975 3.99773 20.5562 3.93444ZM13.2438 19.8801C14.2246 20.302 15.3167 20.3589 16.3337 20.0412C17.3506 19.7234 18.2292 19.0507 18.8195 18.1379C19.4098 17.2251 19.6751 16.1289 19.5701 15.0364C19.465 13.944 18.9963 12.9231 18.2437 12.1481C17.764 11.6528 17.184 11.2734 16.5454 11.0375C15.9068 10.8016 15.2255 10.7149 14.5506 10.7836C13.8757 10.8524 13.2239 11.075 12.6423 11.4353C12.0606 11.7956 11.5634 12.2847 11.1866 12.8674C10.8098 13.4501 10.5627 14.1119 10.4631 14.8051C10.3636 15.4983 10.4139 16.2056 10.6107 16.8763C10.8074 17.547 11.1456 18.1642 11.6009 18.6836C12.0562 19.203 12.6173 19.6116 13.2438 19.8801ZM10.0025 10.3359C10.6588 9.65778 11.4379 9.11984 12.2954 8.75282C13.1528 8.3858 14.0719 8.1969 15 8.1969C15.9281 8.1969 16.8472 8.3858 17.7046 8.75282C18.5621 9.11983 19.3412 9.65778 19.9975 10.3359C20.6538 11.0141 21.1744 11.8192 21.5295 12.7052C21.8847 13.5913 22.0675 14.541 22.0675 15.5C22.0675 16.4591 21.8847 17.4087 21.5295 18.2948C21.1744 19.1809 20.6538 19.9859 19.9975 20.6641C18.6721 22.0337 16.8744 22.8031 15 22.8031C13.1256 22.8031 11.3279 22.0337 10.0025 20.6641C8.67708 19.2945 7.93247 17.4369 7.93247 15.5C7.93247 13.5631 8.67708 11.7055 10.0025 10.3359ZM23.635 9.28452C23.7976 9.12599 23.9278 8.93536 24.0179 8.7239C24.1079 8.51245 24.156 8.28447 24.1593 8.05347C24.1625 7.82247 24.1209 7.59314 24.0369 7.37907C23.9528 7.16499 23.828 6.97051 23.67 6.80715C23.5119 6.64379 23.3237 6.51487 23.1165 6.42802C22.9093 6.34117 22.6874 6.29816 22.4638 6.30152C22.2403 6.30489 22.0197 6.35457 21.815 6.44763C21.6104 6.54068 21.4259 6.67522 21.2725 6.84327C20.9741 7.1701 20.8108 7.60422 20.8171 8.05347C20.8235 8.50272 20.999 8.93174 21.3064 9.24944C21.6139 9.56715 22.0291 9.74852 22.4638 9.75507C22.8986 9.76162 23.3187 9.59283 23.635 9.28452Z" fill="#2F5833"/>
</svg>
