<svg width="28" height="28" viewBox="0 0 28 28" fill="none" xmlns="http://www.w3.org/2000/svg">
<g clip-path="url(#clip0_807_754)">
<path d="M27.4164 7.59145C27.2579 7.02588 26.949 6.51385 26.5227 6.10978C26.0844 5.69328 25.5472 5.39535 24.9617 5.24411C22.7707 4.66661 13.9927 4.66661 13.9927 4.66661C10.3333 4.62498 6.67474 4.8081 3.03774 5.21495C2.4523 5.37736 1.91607 5.68195 1.47674 6.10161C1.04508 6.51695 0.73241 7.02911 0.569077 7.59028C0.176719 9.70398 -0.0139158 11.8502 -0.000256515 13.9999C-0.0142565 16.1478 0.17591 18.2933 0.569077 20.4096C0.72891 20.9684 1.04041 21.4783 1.47324 21.8901C1.90608 22.3019 2.44508 22.5994 3.03774 22.7569C5.25791 23.3333 13.9927 23.3333 13.9927 23.3333C17.6568 23.375 21.3201 23.1918 24.9617 22.7849C25.5472 22.6337 26.0844 22.3358 26.5227 21.9193C26.9544 21.5074 27.2612 20.9953 27.4152 20.4376C27.8178 18.3247 28.0136 16.1776 27.9997 14.0268C28.03 11.8668 27.8345 9.7096 27.4164 7.59028V7.59145ZM11.2021 17.9946V10.0064L18.5054 14.0011L11.2021 17.9946Z" fill="#2F5833"/>
</g>
<defs>
<clipPath id="clip0_807_754">
<rect width="28" height="28" fill="white"/>
</clipPath>
</defs>
</svg>
